# xmcd
#
# Track frame offsets:
#	150
#	19003
#	37247
#	49119
#	69582
#	86907
#	101959
#	120329
#	138807
#	153075
#	175316
#	200372
#
# Disc length: 2885 seconds
# Revision: 0
# Processed by: cddbd v1.5.2PL0 Copyright (c) Steve Scherf et al.
# Submitted via: dBpowerAMP V12.0
#
DISCID=a00b430c
DTITLE=Linda Ronstadt - Live At the Record Plant
DYEAR=1973
DGENRE=
TTITLE0=There Goes My Baby
TTITLE1=I Fall to Pieces
TTITLE2=Silver Threads and Golden Needles
TTITLE3=Love Has No Pride
TTITLE4=Rock Me On The Water
TTITLE5=I Can't Help It
TTITLE6=It Doesn't Matter Anymore
TTITLE7=Dark End of the Street
TTITLE8=I Believe in You
TTITLE9=Crazy Arms
TTITLE10=I Think I'm Going to Miss You
TTITLE11=You're No Good
EXTD=
EXTT0=
EXTT1=
EXTT2=
EXTT3=
EXTT4=
EXTT5=
EXTT6=
EXTT7=
EXTT8=
EXTT9=
EXTT10=
EXTT11=
PLAYORDER=
